<svg width="20" height="20" viewBox="0 0 20 20" xmlns="http://www.w3.org/2000/svg" class="c013813">
    <path
        d="M17 17.5C17.2761 17.5 17.5 17.2761 17.5 17C17.5 16.7239 17.2761 16.5 17 16.5V17.5ZM5.35355 2.64645C5.15829 2.45118 4.84171 2.45118 4.64645 2.64645L1.46447 5.82843C1.2692 6.02369 1.2692 6.34027 1.46447 6.53553C1.65973 6.7308 1.97631 6.7308 2.17157 6.53553L5 3.70711L7.82843 6.53553C8.02369 6.7308 8.34027 6.7308 8.53553 6.53553C8.7308 6.34027 8.7308 6.02369 8.53553 5.82843L5.35355 2.64645ZM17 16.5H6V17.5H17V16.5ZM5.5 16V3H4.5V16H5.5ZM6 16.5C5.72386 16.5 5.5 16.2761 5.5 16H4.5C4.5 16.8284 5.17157 17.5 6 17.5V16.5Z">
    </path>
</svg>