<svg width="20" height="20" viewBox="0 0 20 20" xmlns="http://www.w3.org/2000/svg" class="c013813">
    <path
        d="M16.8626 5.51924C17.1282 5.44338 17.4049 5.59712 17.4808 5.86264C17.5566 6.12816 17.4029 6.4049 17.1374 6.48076L16.8626 5.51924ZM17.4371 13.7572C17.5712 13.9986 17.4842 14.303 17.2428 14.4371L13.3091 16.6225C13.0677 16.7566 12.7633 16.6696 12.6292 16.4282C12.4951 16.1868 12.5821 15.8824 12.8235 15.7483L16.3201 13.8057L14.3775 10.3091C14.2434 10.0677 14.3304 9.76332 14.5718 9.62921C14.8132 9.49511 15.1176 9.58208 15.2517 9.82347L17.4371 13.7572ZM4.68267 9.51924L4.54531 9.03848L4.68267 9.51924ZM4.68267 10.4808L4.82003 10L4.68267 10.4808ZM17.1374 6.48076L4.82003 10L4.54531 9.03848L16.8626 5.51924L17.1374 6.48076ZM4.82003 10L17.1374 13.5192L16.8626 14.4808L4.54531 10.9615L4.82003 10ZM4.82003 10L4.82003 10L4.54531 10.9615C3.57826 10.6852 3.57827 9.31477 4.54531 9.03848L4.82003 10Z">
    </path>
</svg>