<svg width="20" height="20" viewBox="0 0 20 20" xmlns="http://www.w3.org/2000/svg" class="c013813">
    <path
        d="M17 2.5C17.2761 2.5 17.5 2.72386 17.5 3C17.5 3.27614 17.2761 3.5 17 3.5V2.5ZM5.35355 17.3536C5.15829 17.5488 4.84171 17.5488 4.64645 17.3536L1.46447 14.1716C1.2692 13.9763 1.2692 13.6597 1.46447 13.4645C1.65973 13.2692 1.97631 13.2692 2.17157 13.4645L5 16.2929L7.82843 13.4645C8.02369 13.2692 8.34027 13.2692 8.53553 13.4645C8.7308 13.6597 8.7308 13.9763 8.53553 14.1716L5.35355 17.3536ZM17 3.5H6V2.5H17V3.5ZM5.5 4V17H4.5V4H5.5ZM6 3.5C5.72386 3.5 5.5 3.72386 5.5 4H4.5C4.5 3.17157 5.17157 2.5 6 2.5V3.5Z">
    </path>
</svg>