<svg width="20" height="20" viewBox="0 0 20 20" xmlns="http://www.w3.org/2000/svg" class="c013813">
    <path
        d="M3.5 17C3.5 17.2761 3.27614 17.5 3 17.5C2.72386 17.5 2.5 17.2761 2.5 17H3.5ZM17.3536 4.64645C17.5488 4.84171 17.5488 5.15829 17.3536 5.35355L14.1716 8.53553C13.9763 8.7308 13.6597 8.7308 13.4645 8.53553C13.2692 8.34027 13.2692 8.02369 13.4645 7.82843L16.2929 5L13.4645 2.17157C13.2692 1.97631 13.2692 1.65973 13.4645 1.46447C13.6597 1.2692 13.9763 1.2692 14.1716 1.46447L17.3536 4.64645ZM2.5 17V6H3.5V17H2.5ZM4 4.5H17V5.5H4V4.5ZM2.5 6C2.5 5.17157 3.17157 4.5 4 4.5V5.5C3.72386 5.5 3.5 5.72386 3.5 6H2.5Z">
    </path>
</svg>