<svg width="20" height="20" viewBox="0 0 20 20" xmlns="http://www.w3.org/2000/svg" class="c013813">
    <path
        d="M5.51924 16.8626C5.44338 17.1282 5.59712 17.4049 5.86264 17.4808C6.12816 17.5566 6.4049 17.4029 6.48076 17.1374L5.51924 16.8626ZM13.7572 17.4371C13.9986 17.5712 14.303 17.4842 14.4371 17.2428L16.6225 13.3091C16.7566 13.0677 16.6696 12.7633 16.4282 12.6292C16.1868 12.4951 15.8824 12.5821 15.7483 12.8235L13.8057 16.3201L10.3091 14.3775C10.0677 14.2434 9.76332 14.3304 9.62921 14.5718C9.49511 14.8132 9.58208 15.1176 9.82347 15.2517L13.7572 17.4371ZM9.51924 4.68267L9.03848 4.54531L9.51924 4.68267ZM10.4808 4.68267L10 4.82003L10.4808 4.68267ZM6.48076 17.1374L10 4.82003L9.03848 4.54531L5.51924 16.8626L6.48076 17.1374ZM10 4.82003L13.5192 17.1374L14.4808 16.8626L10.9615 4.54531L10 4.82003ZM10 4.82003L10 4.82003L10.9615 4.54531C10.6852 3.57827 9.31477 3.57827 9.03848 4.54531L10 4.82003Z">
    </path>
</svg>