<svg width="20" height="20" viewBox="0 0 20 20" xmlns="http://www.w3.org/2000/svg" class="c013813">
    <path
        d="M16.5 17C16.5 17.2761 16.7239 17.5 17 17.5C17.2761 17.5 17.5 17.2761 17.5 17H16.5ZM2.64645 4.64645C2.45118 4.84171 2.45118 5.15829 2.64645 5.35355L5.82843 8.53553C6.02369 8.7308 6.34027 8.7308 6.53553 8.53553C6.7308 8.34027 6.7308 8.02369 6.53553 7.82843L3.70711 5L6.53553 2.17157C6.7308 1.97631 6.7308 1.65973 6.53553 1.46447C6.34027 1.2692 6.02369 1.2692 5.82843 1.46447L2.64645 4.64645ZM17.5 17V6H16.5V17H17.5ZM16 4.5H3V5.5H16V4.5ZM17.5 6C17.5 5.17157 16.8284 4.5 16 4.5V5.5C16.2761 5.5 16.5 5.72386 16.5 6H17.5Z">
    </path>
</svg>