<svg width="20" height="20" viewBox="0 0 20 20" xmlns="http://www.w3.org/2000/svg" class="c013813">
    <path
        d="M3 17.5C2.72386 17.5 2.5 17.2761 2.5 17C2.5 16.7239 2.72386 16.5 3 16.5V17.5ZM14.6464 2.64645C14.8417 2.45118 15.1583 2.45118 15.3536 2.64645L18.5355 5.82843C18.7308 6.02369 18.7308 6.34027 18.5355 6.53553C18.3403 6.7308 18.0237 6.7308 17.8284 6.53553L15 3.70711L12.1716 6.53553C11.9763 6.7308 11.6597 6.7308 11.4645 6.53553C11.2692 6.34027 11.2692 6.02369 11.4645 5.82843L14.6464 2.64645ZM3 16.5H14V17.5H3V16.5ZM14.5 16V3H15.5V16H14.5ZM14 16.5C14.2761 16.5 14.5 16.2761 14.5 16H15.5C15.5 16.8284 14.8284 17.5 14 17.5V16.5Z">
    </path>
</svg>