<svg width="20" height="20" viewBox="0 0 20 20" xmlns="http://www.w3.org/2000/svg" class="c013813">
    <path
        d="M3.13736 5.51924C2.87184 5.44338 2.5951 5.59712 2.51924 5.86264C2.44338 6.12816 2.59712 6.4049 2.86264 6.48076L3.13736 5.51924ZM2.56292 13.7572C2.42882 13.9986 2.51579 14.303 2.75718 14.4371L6.69089 16.6225C6.93228 16.7566 7.23668 16.6696 7.37079 16.4282C7.50489 16.1868 7.41792 15.8824 7.17653 15.7483L3.6799 13.8057L5.62247 10.3091C5.75658 10.0677 5.66961 9.76332 5.42822 9.62921C5.18682 9.49511 4.88242 9.58208 4.74832 9.82347L2.56292 13.7572ZM15.3173 9.51924L15.4547 9.03848L15.3173 9.51924ZM15.3173 10.4808L15.18 10L15.3173 10.4808ZM2.86264 6.48076L15.18 10L15.4547 9.03848L3.13736 5.51924L2.86264 6.48076ZM15.18 10L2.86264 13.5192L3.13736 14.4808L15.4547 10.9615L15.18 10ZM15.18 10L15.18 10L15.4547 10.9615C16.4217 10.6852 16.4217 9.31477 15.4547 9.03848L15.18 10Z">
    </path>
</svg>