<svg width="20" height="20" viewBox="0 0 20 20" xmlns="http://www.w3.org/2000/svg" class="c013813">
    <path
        d="M16.5 3C16.5 2.72386 16.7239 2.5 17 2.5C17.2761 2.5 17.5 2.72386 17.5 3H16.5ZM2.64645 15.3536C2.45118 15.1583 2.45118 14.8417 2.64645 14.6464L5.82843 11.4645C6.02369 11.2692 6.34027 11.2692 6.53553 11.4645C6.7308 11.6597 6.7308 11.9763 6.53553 12.1716L3.70711 15L6.53553 17.8284C6.7308 18.0237 6.7308 18.3403 6.53553 18.5355C6.34027 18.7308 6.02369 18.7308 5.82843 18.5355L2.64645 15.3536ZM17.5 3V14H16.5V3H17.5ZM16 15.5H3V14.5H16V15.5ZM17.5 14C17.5 14.8284 16.8284 15.5 16 15.5V14.5C16.2761 14.5 16.5 14.2761 16.5 14H17.5Z">
    </path>
</svg>