<svg width="20" height="20" viewBox="0 0 20 20" xmlns="http://www.w3.org/2000/svg" class="c013813">
    <path
        d="M3.5 3C3.5 2.72386 3.27614 2.5 3 2.5C2.72386 2.5 2.5 2.72386 2.5 3H3.5ZM17.3536 15.3536C17.5488 15.1583 17.5488 14.8417 17.3536 14.6464L14.1716 11.4645C13.9763 11.2692 13.6597 11.2692 13.4645 11.4645C13.2692 11.6597 13.2692 11.9763 13.4645 12.1716L16.2929 15L13.4645 17.8284C13.2692 18.0237 13.2692 18.3403 13.4645 18.5355C13.6597 18.7308 13.9763 18.7308 14.1716 18.5355L17.3536 15.3536ZM2.5 3V14H3.5V3H2.5ZM4 15.5H17V14.5H4V15.5ZM2.5 14C2.5 14.8284 3.17157 15.5 4 15.5V14.5C3.72386 14.5 3.5 14.2761 3.5 14H2.5Z">
    </path>
</svg>