<svg width="20" height="20" viewBox="0 0 20 20" xmlns="http://www.w3.org/2000/svg" class="c013813">
    <path
        d="M5.51924 3.13736C5.44338 2.87184 5.59712 2.5951 5.86264 2.51924C6.12816 2.44338 6.4049 2.59712 6.48076 2.86264L5.51924 3.13736ZM13.7572 2.56292C13.9986 2.42881 14.303 2.51579 14.4371 2.75718L16.6225 6.69089C16.7566 6.93228 16.6696 7.23668 16.4282 7.37079C16.1868 7.50489 15.8824 7.41792 15.7483 7.17653L13.8057 3.6799L10.3091 5.62247C10.0677 5.75658 9.76332 5.66961 9.62921 5.42822C9.49511 5.18682 9.58208 4.88242 9.82347 4.74831L13.7572 2.56292ZM9.51924 15.3173L9.03848 15.4547L9.51924 15.3173ZM10.4808 15.3173L10 15.18L10.4808 15.3173ZM6.48076 2.86264L10 15.18L9.03848 15.4547L5.51924 3.13736L6.48076 2.86264ZM10 15.18L13.5192 2.86264L14.4808 3.13736L10.9615 15.4547L10 15.18ZM10 15.18L10 15.18L10.9615 15.4547C10.6852 16.4217 9.31477 16.4217 9.03848 15.4547L10 15.18Z">
    </path>
</svg>